<?xml version="1.0" encoding="iso-8859-1"?>
<!-- Generator: Adobe Illustrator 19.0.0, SVG Export Plug-In . SVG Version: 6.00 Build 0)  -->
<svg version="1.1" id="Layer_1" xmlns="http://www.w3.org/2000/svg" xmlns:xlink="http://www.w3.org/1999/xlink" x="0px" y="0px"
	 viewBox="0 0 512 512" style="enable-background:new 0 0 512 512;" xml:space="preserve">
<circle style="fill:#25B7D3;" cx="256" cy="256" r="256"/>
<path style="fill:#FFFFFF;" d="M107.055,124.928c0-9.872,8.001-17.873,17.873-17.873H256l74.473,62.557v217.46
	c0,9.872-8.001,17.873-17.873,17.873H124.928c-9.872,0-17.873-8.001-17.873-17.873V124.928z"/>
<path style="fill:#F0F1F1;" d="M256,107.055v44.684c0,9.872,8.001,17.873,17.873,17.873h56.599L256,107.055z"/>
<g>
	<path style="fill:#E2E4E5;" d="M237.382,190.836c0,2.569-2.085,4.655-4.655,4.655h-83.782c-2.569,0-4.655-2.085-4.655-4.655
		c0-2.569,2.085-4.655,4.655-4.655h83.782C235.297,186.182,237.382,188.267,237.382,190.836z"/>
	<path style="fill:#E2E4E5;" d="M293.236,228.073c0,2.569-2.085,4.655-4.655,4.655H148.945c-2.569,0-4.655-2.085-4.655-4.655
		c0-2.569,2.085-4.655,4.655-4.655h139.636C291.151,223.418,293.236,225.503,293.236,228.073z"/>
	<path style="fill:#E2E4E5;" d="M293.236,265.309c0,2.569-2.085,4.655-4.655,4.655H148.945c-2.569,0-4.655-2.085-4.655-4.655
		s2.085-4.655,4.655-4.655h139.636C291.151,260.655,293.236,262.74,293.236,265.309z"/>
	<path style="fill:#E2E4E5;" d="M293.236,302.545c0,2.569-2.085,4.655-4.655,4.655H148.945c-2.569,0-4.655-2.085-4.655-4.655
		c0-2.569,2.085-4.655,4.655-4.655h139.636C291.151,297.891,293.236,299.976,293.236,302.545z"/>
</g>
<path style="fill:#3E3E3F;" d="M404.945,139.636c0,30.673-5.446,56.599-14.522,78.476v0.047
	c-8.937,6.656-27.648,19.223-41.332,19.223c8.332,2.793,19.13,4.748,29.975,3.351c-13.912,23.361-31.269,44.618-58.042,40.541
	c4.794,2.467,10.519,4.748,16.756,6.191c-31.05,24.799-69.101,34.56-105.053,38.353
	C232.727,251.345,287.753,139.636,404.945,139.636z"/>
<path style="fill:#5B5C5F;" d="M404.945,139.636c-113.357,0-172.218,107.022-172.218,186.182l172.204-185.446
	C404.931,140.12,404.945,139.888,404.945,139.636z"/>
<polygon style="fill:#E2E4E5;" points="200.145,362.803 404.945,139.636 218.764,358.4 "/>
<polygon style="fill:#F0F1F1;" points="404.945,139.636 200.145,344.436 200.145,362.803 "/>
<g>
</g>
<g>
</g>
<g>
</g>
<g>
</g>
<g>
</g>
<g>
</g>
<g>
</g>
<g>
</g>
<g>
</g>
<g>
</g>
<g>
</g>
<g>
</g>
<g>
</g>
<g>
</g>
<g>
</g>
</svg>
